<?xml version="1.0" standalone="no"?>
<!DOCTYPE svg PUBLIC "-//W3C//DTD SVG 20010904//EN"
 "http://www.w3.org/TR/2001/REC-SVG-20010904/DTD/svg10.dtd">
<svg version="1.0" xmlns="http://www.w3.org/2000/svg"
 width="28.000000pt" height="24.000000pt" viewBox="0 0 28.000000 24.000000"
 preserveAspectRatio="xMidYMid meet" style="fill: #000000; stroke: none;">

<g transform="translate(0.000000,24.000000) scale(0.100000,-0.100000)">
<path d="M69 223 c-78 -48 -77 -160 1 -207 78 -45 180 14 180 104 0 91 -105
150 -181 103z m111 -8 c32 -17 60 -61 60 -95 0 -53 -57 -110 -110 -110 -53 0
-110 57 -110 110 0 33 28 78 58 94 35 20 66 20 102 1z" style="fill: #000000;"/>
<path d="M108 178 c-8 -13 -17 -39 -20 -58 -5 -29 -1 -40 17 -58 26 -25 45
-29 45 -8 0 8 7 16 14 19 19 7 17 87 -1 94 -7 3 -13 11 -13 19 0 22 -26 16
-42 -8z m52 -31 c0 -3 -9 -3 -20 0 -11 3 -20 0 -20 -6 0 -6 6 -11 14 -11 7 0
19 -7 26 -15 11 -13 10 -19 -7 -34 -16 -15 -22 -16 -36 -6 -24 17 -21 23 8 17
14 -2 25 0 25 7 0 6 -11 13 -25 17 -29 7 -33 31 -8 49 13 10 19 10 30 -1 7 -7
13 -15 13 -17z" style="fill: #000000;"/>
</g>
</svg>

